<?xml version="1.0" encoding="UTF-8"?>
<svg width="24px" height="24px" viewBox="0 0 24 24" version="1.1" xmlns="http://www.w3.org/2000/svg">
    <title>İhtiyaçlar</title>
    <g stroke="none" stroke-width="1" fill="none" fill-rule="evenodd">
        <path d="M12,2C6.48,2,2,6.48,2,12s4.48,10,10,10s10-4.48,10-10S17.52,2,12,2z M12,20c-4.41,0-8-3.59-8-8c0-4.41,3.59-8,8-8 s8,3.59,8,8C20,16.41,16.41,20,12,20z M11,16h2v2h-2V16z M12.61,6.04c-2.06-0.3-3.88,0.97-4.43,2.79c-0.18,0.58,0.26,1.17,0.87,1.17 h0.2c0.41,0,0.74-0.29,0.88-0.67c0.32-0.89,1.27-1.5,2.3-1.28c0.95,0.2,1.65,1.13,1.57,2.1c-0.1,1.34-1.62,1.63-2.45,2.88 c-0.22,0.33-0.33,0.73-0.33,1.14V15h2v-0.5c0-0.46,0.08-0.9,0.24-1.32c0.49-1.25,2.09-1.56,2.93-2.94 C16.25,8.83,14.68,6.4,12.61,6.04z" fill="#000000"/>
    </g>
</svg>
